<svg xmlns="http://www.w3.org/2000/svg" viewBox="0 0 900 620" fill="none">
  <defs><filter id="s" x="0" y="0" width="900" height="620" filterUnits="userSpaceOnUse"><feDropShadow dx="0" dy="24" stdDeviation="22" flood-opacity=".16"/></filter></defs>
  <rect width="900" height="620" rx="46" fill="#fff7ec"/>
  <g filter="url(#s)">
    <rect x="76" y="70" width="748" height="480" rx="32" fill="white"/>
    <rect x="76" y="70" width="180" height="480" rx="32" fill="#111111"/>
    <circle cx="132" cy="130" r="28" fill="#F59A23"/>
    <rect x="180" y="116" width="48" height="18" rx="9" fill="#fff" opacity=".9"/>
    <rect x="114" y="198" width="104" height="14" rx="7" fill="#fff" opacity=".86"/>
    <rect x="114" y="247" width="88" height="14" rx="7" fill="#fff" opacity=".42"/>
    <rect x="114" y="296" width="118" height="14" rx="7" fill="#fff" opacity=".42"/>
    <rect x="114" y="345" width="78" height="14" rx="7" fill="#fff" opacity=".42"/>
    <rect x="296" y="112" width="252" height="24" rx="12" fill="#111"/>
    <rect x="296" y="160" width="464" height="62" rx="18" fill="#fff4e5"/>
    <rect x="328" y="180" width="168" height="14" rx="7" fill="#111" opacity=".75"/>
    <rect x="656" y="175" width="72" height="24" rx="12" fill="#F59A23"/>
    <rect x="296" y="252" width="142" height="116" rx="22" fill="#111"/>
    <rect x="466" y="252" width="142" height="116" rx="22" fill="#F59A23"/>
    <rect x="638" y="252" width="122" height="116" rx="22" fill="#fff7ec" stroke="#f2dfc5"/>
    <rect x="326" y="394" width="382" height="24" rx="12" fill="#111" opacity=".15"/>
    <rect x="326" y="440" width="442" height="24" rx="12" fill="#111" opacity=".1"/>
    <rect x="326" y="486" width="300" height="24" rx="12" fill="#111" opacity=".1"/>
  </g>
</svg>